<svg width="50" height="41" viewBox="0 0 50 41" fill="none" xmlns="http://www.w3.org/2000/svg">
<path opacity="0.3" d="M4.72723 4.54541L4.54541 4.72723V36.3636H45.2727C45.3409 36.3181 45.409 36.2272 45.4545 36.1818V4.72723L45.2727 4.54541H4.72723ZM9.09086 31.8181L17.0454 21.5909L22.7272 28.4318L30.6818 18.1818L40.909 31.8181H9.09086Z" fill="#444444" fill-opacity="0.3"/>
<path d="M45.4545 0H4.54545C2.27273 0 0 2.27273 0 4.54545V36.3636C0 38.8636 2.04545 40.9091 4.54545 40.9091H45.4545C47.7273 40.9091 50 38.6364 50 36.3636V4.54545C50 2.27273 47.7273 0 45.4545 0ZM45.4545 36.1818C45.4091 36.25 45.3182 36.3182 45.2727 36.3636H4.54545V4.72727L4.72727 4.54545H45.25C45.3182 4.59091 45.3864 4.68182 45.4318 4.72727V36.1818H45.4545ZM22.7273 28.4318L17.0455 21.5909L9.09091 31.8182H40.9091L30.6818 18.1818L22.7273 28.4318Z" fill="white" fill-opacity="0.5"/>
</svg>
